# xmcd
#
# Track frame offsets:
#	150
#	18731
#	33950
#	45678
#	54851
#	71749
#	86530
#	98231
#	109422
#	122872
#	134197
#	147250
#	162248
#	176656
#	193215
#
# Disc length: 2704 seconds
#
# Revision: 1
# Processed by: cddbd v1.5.2PL0 Copyright (c) Steve Scherf et al.
# Submitted via: audiograbber 1.83.01
#
DISCID=e00a8e0f
DTITLE=Merle Haggard - The Epic Collection Live
DYEAR=1900
DGENRE=
TTITLE0=Honky Tonk Nighttime Man/Old Man From The Mountain
TTITLE1=Holding Things Together
TTITLE2=Sing  A Sad Song
TTITLE3=Every Fool Has A Rainbow
TTITLE4=Blue Yodel #2
TTITLE5=Trouble In Mind
TTITLE6=Things Aren't Funny Anymore
TTITLE7=My Friends Ar e Gonna Be Strangers
TTITLE8=I Alway Get Lucky With You
TTITLE9=Workin' Man Blues
TTITLE10=A Working Man Can't Get Nowhere Today
TTITLE11=Haggard Like I've Never Been Before
TTITLE12=No One's Gonna Love You Better (With Heather Myles)
TTITLE13=We Never Touch At All
TTITLE14=I'm  Looking For  My Mind
EXTD=
EXTT0=
EXTT1=
EXTT2=
EXTT3=
EXTT4=
EXTT5=
EXTT6=
EXTT7=
EXTT8=
EXTT9=
EXTT10=
EXTT11=
EXTT12=
EXTT13=
EXTT14=
PLAYORDER=
